<svg width="32" height="32" xmlns="http://www.w3.org/2000/svg" style="vector-effect: non-scaling-stroke;" stroke="null">

 <g stroke="null">
  <title stroke="null">background</title>
  <rect stroke="null" fill="none" id="canvas_background" height="402" width="582" y="-1" x="-1"/>
 </g>
 <g stroke="null">
  <title stroke="null">Layer 1</title>
  <path fill="#000000" stroke="null" id="svg_1" d="m26,30l-4,0a2.0059,2.0059 0 0 1 -2,-2l0,-7a2.0059,2.0059 0 0 1 -2,-2l0,-6a2.9465,2.9465 0 0 1 3,-3l6,0a2.9465,2.9465 0 0 1 3,3l0,6a2.0059,2.0059 0 0 1 -2,2l0,7a2.0059,2.0059 0 0 1 -2,2zm-5,-18a0.9448,0.9448 0 0 0 -1,1l0,6l2,0l0,9l4,0l0,-9l2,0l0,-6a0.9448,0.9448 0 0 0 -1,-1l-6,0z"/>
  <path fill="#000000" stroke="null" id="svg_2" d="m24,9a4,4 0 1 1 4,-4l0,0a4.0118,4.0118 0 0 1 -4,4zm0,-6a2,2 0 1 0 2,2l0,0a2.0059,2.0059 0 0 0 -2,-2z"/>
  <path fill="#000000" stroke="null" id="svg_3" d="m10,20.1839l0,-8.1839l-2,0l0,8.1839a3,3 0 1 0 2,0z"/>
  <path stroke="null" fill="#000000" id="svg_4" d="m9,30a6.9931,6.9931 0 0 1 -5,-11.8892l0,-11.1108a5,5 0 0 1 10,0l0,11.1108a6.9931,6.9931 0 0 1 -5,11.8892zm0,-26a3.0033,3.0033 0 0 0 -3,3l0,11.9834l-0.332,0.2983a5,5 0 1 0 6.664,0l-0.332,-0.2983l0,-11.9834a3.0033,3.0033 0 0 0 -3,-3z"/>
  <rect stroke="null" x="32.136986" y="0.205479" fill="none" width="7.109588" id="_Transparent_Rectangle_" height="32" class="cls-1"/>
 </g>
</svg>